<?xml version="1.0" encoding="utf-8"?>
<!-- Generator: Adobe Illustrator 19.2.1, SVG Export Plug-In . SVG Version: 6.00 Build 0)  -->
<svg version="1.1" id="layer" xmlns="http://www.w3.org/2000/svg" xmlns:xlink="http://www.w3.org/1999/xlink" x="0px" y="0px"
	 viewBox="0 0 652 652" style="enable-background:new 0 0 652 652;" xml:space="preserve">
<style type="text/css">
	.st0{fill:#231815;}
	.st1{fill:#007CC5;}
</style>
<g>
	<path class="st0" d="M67.9,305.8H57.5v-0.1l-31.4,23.7v46.5h31.4v-47.2H80c18.7,0,28.8-4.6,28.8-29.4v-26.6c0-2-0.1-3.8-0.3-5.6
		l-29.1,21.9C79.4,302.9,78.7,305.9,67.9,305.8"/>
	<path class="st1" d="M57.5,268.3c3.9,0,16,0,18.2,0.9c2.3,1.1,3.2,2.4,3.6,5.8l27.9-15.1c-3.4-9.7-12-13.8-28.7-13.8H26.1v57.8
		l31.4-17V268.3"/>
	<polygon class="st0" points="117.1,268.7 146.3,268.7 146.3,238.7 117.1,260.7 	"/>
	<rect x="117.1" y="278.4" class="st0" width="29.2" height="97.4"/>
	<path class="st0" d="M206.8,275.8c-12.1,0-18.5,7.7-21.8,11.7v-9.2h-29.4v97.4H185v-69.9c0-2.6,0-10.1,8.8-10.1
		c8.4,0,8.4,7.9,8.4,10.6v69.4h28.8v-70.5c0-6.8-0.2-13.6-4.8-20C223.2,280.8,217.1,275.8,206.8,275.8"/>
	<path class="st0" d="M291.3,275.8c-12.1,0-18.5,7.7-21.8,11.7v-9.2h-29.4v97.4h29.4v-69.9c0-2.6,0-10.1,8.8-10.1
		c8.4,0,8.4,7.9,8.4,10.6v69.4h28.8v-70.5c0-6.8-0.2-13.6-4.8-20C307.6,280.8,301.5,275.8,291.3,275.8"/>
	<path class="st0" d="M398.8,305.6c0-6.4,0-18.3-12.5-25c-7.5-3.9-18-5-26.1-5c-36.3,0-36,21.5-35.6,35h28.1c0-9.7,0-15.2,8.3-15.2
		c1.8,0,6.2,0,8.1,4.8c0.5,1.7,0.5,1.8,0.5,10.5c-8.1,3.9-9.7,4.6-24.6,10.1c-13.9,5.5-23.1,9.4-23.1,32.5c0,6.4,0,25.3,23.3,25.3
		c11.7,0,18.2-5.5,24.4-11v8.3H403c-3.3-4-4.2-6.2-4.2-15.2V305.6 M369.6,347.2c0,6.4-0.7,12.7-10.3,12.7c-7.3,0-7.3-5.3-7.3-11.2
		c0-8.3,0.6-11.7,4.8-14.9c1.7-1.1,8.4-4.6,12.8-7V347.2z"/>
	<path class="st0" d="M473.3,284.3c-2.9-2.6-11-8.4-28.6-8.4c-37.2,0-37.2,21.5-37.2,32.5v40.4c0,9.7,0,29.9,38.7,29.9
		c14.7,0,22.9-4,28.1-8.8c6.6-6.1,7-12.7,7-19.5v-8.8h-28.8v9.2c0,3.5,0,9-7.3,9c-7.5,0-8.6-4.8-8.6-9v-46.1c0-2.4,0-9.2,8.4-9.2
		c7.5,0,7.5,6.6,7.5,9.2v11h28.8v-9.4C481.2,299,481.2,290.7,473.3,284.3"/>
	<rect x="489.3" y="246.3" class="st0" width="29.4" height="129.5"/>
</g>
<g>
	<path class="st0" d="M574.2,343.6c0,9.2,0,10.3-1.6,12.5c-2,2.4-4.8,2.9-7.7,2.9c-8.1,0-8.1-6.4-8.1-9.4v-16h44.4v-24.6
		c0-13.2,0-33.4-36.7-33.4c-27.2,0-37.2,9.7-37.2,38v26.4c0,15,1.7,22.6,7.3,28.6c7.9,8.3,21.6,9.9,29.9,9.9c5.9,0,24.6,0,33.2-12.3
		c4.6-6.2,4.6-13.6,4.6-22.8H574.2 M556.8,305c0-3.3,0-10.6,8.8-10.6c8.1,0,8.1,7,8.1,10.6v10.1h-16.9V305z"/>
	<polygon class="st0" points="117.1,260.7 117.1,260.7 146.3,238.7 146.3,238.7 	"/>
	<path class="st0" d="M29.3,397c0-3.2-0.2-3.3-2-3.7l-0.6-0.1c-0.3-0.2-0.3-1,0.1-1.2c0.7,0,1.3,0.1,2,0.1c0.7,0,1.4,0,2.2,0h6.5
		c2,0,3.8,0,4.5-0.1c0,0.6,0.1,2.7,0.2,4.8c-0.2,0.5-0.9,0.5-1.2,0.1c-0.3-1.2-0.6-1.8-0.8-2.2c-0.8-1.2-2.8-1.1-4-1.1h-1.8
		c-1.4,0-1.6,0-1.6,1.6v5.4c0,0.8,0,0.9,0.9,0.9h2.5c2.5,0,2.7-0.4,3.1-1.8l0.2-0.9c0.2-0.3,0.9-0.3,1.2,0.1
		c-0.1,1.4-0.1,2.2-0.1,3.3c0,1.2,0,2,0.1,3.4c-0.2,0.4-0.9,0.4-1.2,0.1l-0.2-0.9c-0.4-1.4-0.6-1.8-3.1-1.8h-2.5
		c-0.9,0-0.9,0.1-0.9,1.1v3.4c0,3.2,0.2,3.5,2.2,3.7l1.4,0.1c0.3,0.2,0.3,1-0.1,1.2c-2.3-0.1-3.9-0.1-5.3-0.1c-1.5,0-2.9,0-4.8,0.1
		c-0.4-0.1-0.4-0.9-0.1-1.2l0.9-0.1c2-0.3,2.2-0.5,2.2-3.7V397"/>
	<path class="st0" d="M60.5,397c0-3.2-0.2-3.4-2.2-3.7l-0.9-0.1c-0.3-0.2-0.3-1,0.1-1.2c1.8,0.1,3.3,0.1,4.8,0.1
		c1.5,0,2.9,0,4.8-0.1c0.4,0.1,0.4,0.9,0.1,1.2l-0.9,0.1c-2,0.3-2.2,0.5-2.2,3.7v10.4c0,3.2,0.2,3.4,2.2,3.7l0.9,0.1
		c0.3,0.2,0.3,1-0.1,1.2c-1.8-0.1-3.3-0.1-4.8-0.1c-1.5,0-2.9,0-4.8,0.1c-0.4-0.1-0.4-0.9-0.1-1.2l0.9-0.1c2-0.3,2.2-0.5,2.2-3.7
		V397"/>
	<path class="st0" d="M101.9,399.3c0-4.7-0.3-5.8-2-6l-1.5-0.1c-0.3-0.3-0.3-0.9,0.1-1.2c1.7,0.1,2.8,0.1,4.1,0.1
		c1.4,0,2.4,0,3.9-0.1c0.4,0.2,0.4,0.9,0,1.2l-1.4,0.1c-1.2,0.1-1.6,1.4-1.6,6v7.8c0,0.9,0,4.7,0.1,5.4c-0.1,0.3-0.6,0.5-1,0.4
		c-0.5-0.7-1.4-1.6-4.3-4.8l-7.1-7.5c-1.8-1.9-3-3.1-3.6-3.6c-0.2,0-0.2,0.5-0.2,2v6.2c0,4.7,0.3,5.9,2,6l1.5,0.1
		c0.4,0.3,0.3,0.9-0.1,1.2c-1.7-0.1-2.8-0.1-4.1-0.1c-1.4,0-2.2,0-3.9,0.1c-0.4-0.2-0.4-0.9,0-1.2l1.4-0.1c1.2-0.1,1.6-1.4,1.6-6
		v-8.3c0-1.5,0-2.2-1-2.9c-0.4-0.3-1.3-0.6-1.7-0.7l-0.7-0.1c-0.3-0.3-0.3-1,0.1-1.2c1.8,0.1,3,0.1,4,0.1c0.7,0,1.3,0,1.9-0.1
		c0.9,1.8,2.7,3.8,4.6,5.7l4.4,4.5c1,1,3.7,4,4.2,4.3c0.3-0.1,0.3-0.7,0.3-1.9V399.3"/>
	<path class="st0" d="M128.2,403.6c-1,0-1.1-0.1-0.6-1.4l1.7-4.1c0.4-1,0.6-1.4,0.7-1.6h0.1c0.1,0.2,0.3,0.6,0.7,1.7l1.4,4
		c0.5,1.4,0.4,1.4-0.8,1.4H128.2 M132.1,405.1c1.1,0,1.2,0,1.6,1.1l1.1,3c0.6,1.4,0.6,1.7-0.6,1.9l-0.9,0.1c-0.4,0.2-0.4,1,0.1,1.2
		c1.2-0.1,2.5-0.1,4.2-0.1c1.6,0,2.7,0,3.9,0.1c0.5-0.1,0.6-0.9,0.1-1.2l-0.7-0.1c-1.7-0.3-2.1-0.9-2.7-2.5l-4.2-11.1
		c-1.1-2.8-1.8-5.3-2-5.7c-0.1-0.3-0.4-0.4-0.7-0.2c-0.2,0.6-1.1,1.4-2,1.8c-0.1,0.9-0.4,2-1.2,3.9l-4.5,10.7
		c-0.9,2.2-1.4,2.7-2.9,3.1l-1.1,0.2c-0.3,0.2-0.3,1,0.1,1.2c0.8,0,2-0.1,3.3-0.1c1.3,0,2.5,0,3.7,0.1c0.5-0.1,0.5-0.9,0.1-1.2
		l-1.3-0.2c-0.9-0.2-1-0.4-0.5-1.9l1.1-3c0.4-1.1,0.5-1.1,1.6-1.1H132.1z"/>
	<path class="st0" d="M174.4,399.3c0-4.7-0.3-5.8-2-6l-1.5-0.1c-0.3-0.3-0.3-0.9,0.1-1.2c1.7,0.1,2.8,0.1,4.1,0.1
		c1.4,0,2.4,0,3.9-0.1c0.4,0.2,0.4,0.9,0,1.2l-1.4,0.1c-1.2,0.1-1.6,1.4-1.6,6v7.8c0,0.9,0,4.7,0.1,5.4c-0.1,0.3-0.6,0.5-1,0.4
		c-0.5-0.7-1.4-1.6-4.3-4.8l-7.1-7.5c-1.8-1.9-3-3.1-3.6-3.6c-0.2,0-0.2,0.5-0.2,2v6.2c0,4.7,0.3,5.9,2,6l1.5,0.1
		c0.4,0.3,0.3,0.9-0.1,1.2c-1.7-0.1-2.8-0.1-4.1-0.1c-1.4,0-2.2,0-3.9,0.1c-0.4-0.2-0.4-0.9,0-1.2l1.4-0.1c1.2-0.1,1.6-1.4,1.6-6
		v-8.3c0-1.5,0-2.2-1-2.9c-0.4-0.3-1.3-0.6-1.7-0.7l-0.7-0.1c-0.3-0.3-0.3-1,0.1-1.2c1.8,0.1,3,0.1,4,0.1c0.7,0,1.3,0,1.9-0.1
		c0.9,1.8,2.7,3.8,4.6,5.7l4.4,4.5c1,1,3.7,4,4.2,4.3c0.3-0.1,0.3-0.7,0.3-1.9V399.3"/>
</g>
<g>
	<path class="st0" d="M211.9,392.3c0,1,0.1,3.3,0.4,5.1c-0.2,0.4-0.9,0.5-1.2,0.1c-0.7-2.6-2.3-4.8-6.5-4.8c-4,0-8,2.7-8,9
		c0,6.2,4,9.8,8.4,9.8c4.4,0,6.2-3.5,6.7-4.7c0.2-0.4,1-0.4,1.2,0c-0.2,2.1-1,4.2-1.5,5c-1.4,0.2-3.1,1-6.3,1
		c-2.9,0-5.8-0.5-8.2-2.1c-2.5-1.7-4.4-4.6-4.4-8.3c0-3.8,1.6-6.6,3.9-8.4c2.3-1.8,5.5-2.7,9.1-2.7
		C208.5,391.4,211.5,392.3,211.9,392.3"/>
	<path class="st0" d="M231.1,397c0-3.2-0.2-3.4-2.2-3.7l-0.9-0.1c-0.3-0.2-0.3-1,0.1-1.2c1.8,0.1,3.3,0.1,4.8,0.1
		c1.5,0,2.9,0,4.8-0.1c0.4,0.1,0.4,0.9,0.1,1.2l-0.9,0.1c-2,0.3-2.2,0.5-2.2,3.7v10.4c0,3.2,0.2,3.4,2.2,3.7l0.9,0.1
		c0.3,0.2,0.3,1-0.1,1.2c-1.8-0.1-3.3-0.1-4.8-0.1c-1.5,0-2.9,0-4.8,0.1c-0.4-0.1-0.4-0.9-0.1-1.2l0.9-0.1c2-0.3,2.2-0.5,2.2-3.7
		V397"/>
	<path class="st0" d="M259.7,403.6c-1,0-1.1-0.1-0.6-1.4l1.7-4.1c0.4-1,0.6-1.4,0.7-1.6h0.1c0.1,0.2,0.3,0.6,0.7,1.7l1.4,4
		c0.5,1.4,0.4,1.4-0.8,1.4H259.7 M263.6,405.1c1.1,0,1.2,0,1.6,1.1l1.1,3c0.6,1.4,0.6,1.7-0.6,1.9l-0.9,0.1c-0.4,0.2-0.4,1,0.1,1.2
		c1.2-0.1,2.5-0.1,4.2-0.1c1.6,0,2.7,0,3.9,0.1c0.5-0.1,0.6-0.9,0.1-1.2l-0.7-0.1c-1.7-0.3-2.1-0.9-2.7-2.5l-4.2-11.1
		c-1.1-2.8-1.8-5.3-2-5.7c-0.1-0.3-0.4-0.4-0.7-0.2c-0.2,0.6-1.1,1.4-2,1.8c-0.1,0.9-0.4,2-1.2,3.9l-4.5,10.7
		c-0.9,2.2-1.4,2.7-2.9,3.1l-1.1,0.2c-0.3,0.2-0.3,1,0.1,1.2c0.8,0,2-0.1,3.3-0.1s2.5,0,3.7,0.1c0.5-0.1,0.5-0.9,0.1-1.2l-1.3-0.2
		c-0.9-0.2-1-0.4-0.5-1.9l1.1-3c0.4-1.1,0.5-1.1,1.6-1.1H263.6z"/>
	<path class="st0" d="M289.9,397c0-3.2-0.2-3.4-2.2-3.7l-0.9-0.1c-0.3-0.2-0.3-1,0.1-1.2c1.8,0.1,3.3,0.1,4.8,0.1
		c1.5,0,2.9,0,4.5-0.1c0.4,0.1,0.4,0.9,0.1,1.2l-0.6,0.1c-2,0.5-2.2,0.5-2.2,3.7v10c0,1.4,0.1,2.7,0.5,3.2c0.4,0.4,1.2,0.7,3.6,0.7
		c2.8,0,4.6-0.1,5.9-3.9c0.3-0.3,1.1-0.2,1.2,0.2c-0.2,2-0.9,4.3-1.4,5.2c-1.4,0-2.8-0.1-4.1-0.1c-1.3,0-2.5,0-3.7,0h-3.8
		c-1.5,0-2.9,0-4.8,0.1c-0.4-0.1-0.4-0.9-0.1-1.2l0.9-0.1c2-0.3,2.2-0.5,2.2-3.7V397"/>
	<path class="st0" d="M350.1,397.5c0-3,0-3.7-1.1-3.9l-1.4-0.2c-0.4-0.1-0.4-1,0-1.2c2.6-0.2,5-0.3,7.5-0.3c2.6,0,4.3,0.3,5.6,0.8
		c1.5,0.6,3.8,2.1,3.8,5.5c0,3.2-2.1,4.7-3.9,5.3c-1.6,0.6-3.4,0.8-4.2,0.7c-0.2-0.2-0.2-0.7,0-0.8c2.9-0.6,4.3-2.3,4.3-5.3
		c0-3.1-1.9-4.8-5.1-4.8c-1.9,0-1.9,0.3-1.9,1.6v12.5c0,3.2,0.2,3.4,2.2,3.7l1.1,0.1c0.3,0.2,0.3,1-0.1,1.2c-2-0.1-3.5-0.1-4.9-0.1
		c-1.5,0-2.9,0-4.6,0.1c-0.4-0.1-0.4-0.9-0.1-1.2l0.7-0.1c2-0.4,2.2-0.5,2.2-3.7V397.5"/>
	<path class="st0" d="M384.4,403.6c-1,0-1.1-0.1-0.6-1.4l1.7-4.1c0.4-1,0.6-1.4,0.7-1.6h0.1c0.1,0.2,0.3,0.6,0.7,1.7l1.4,4
		c0.5,1.4,0.4,1.4-0.8,1.4H384.4 M388.3,405.1c1.1,0,1.2,0,1.6,1.1l1.1,3c0.6,1.4,0.6,1.7-0.6,1.9l-0.9,0.1c-0.4,0.2-0.4,1,0.1,1.2
		c1.2-0.1,2.5-0.1,4.2-0.1c1.6,0,2.7,0,3.9,0.1c0.5-0.1,0.6-0.9,0.1-1.2l-0.7-0.1c-1.7-0.3-2.1-0.9-2.7-2.5l-4.2-11.1
		c-1.1-2.8-1.8-5.3-2-5.7c-0.1-0.3-0.4-0.4-0.7-0.2c-0.2,0.6-1.1,1.4-2,1.8c-0.1,0.9-0.4,2-1.2,3.9l-4.5,10.7
		c-0.9,2.2-1.4,2.7-2.9,3.1l-1.1,0.2c-0.3,0.2-0.3,1,0.1,1.2c0.8,0,2-0.1,3.3-0.1c1.3,0,2.5,0,3.7,0.1c0.5-0.1,0.5-0.9,0.1-1.2
		l-1.3-0.2c-0.9-0.2-1-0.4-0.5-1.9l1.1-3c0.4-1.1,0.5-1.1,1.6-1.1H388.3z"/>
	<path class="st0" d="M418.1,394.6c0-1.2,0.3-1.3,2.1-1.3c3.3,0,4.9,2,4.9,4.4c0,3.2-1.6,4.4-4.6,4.4c-2.3,0-2.3,0-2.3-1.2V394.6
		 M414.6,407.4c0,3.2-0.2,3.3-2.2,3.7l-0.7,0.1c-0.4,0.2-0.4,1,0.1,1.2c1.6-0.1,3.1-0.1,4.6-0.1c1.4,0,3,0,4.9,0.1
		c0.4-0.1,0.4-0.9,0.1-1.2l-1.1-0.1c-2-0.3-2.2-0.5-2.2-3.7v-3.3c0-0.7,0.1-0.7,1.3-0.7c0.7,0,1.5,0.2,1.9,0.7c1,1.5,2.2,3.5,3.4,5
		c2,2.6,3.7,3.5,6.5,3.5c0.9,0,1.5-0.1,2-0.2c0.2-0.1,0.2-0.6,0-0.7c-0.7,0-1.6-0.3-2.5-1c-1.5-1.3-3.6-3.5-5.9-7.4
		c-0.1-0.2-0.2-0.5,0-0.7c1.8-0.7,4.1-2,4.1-5c0-4.9-4.7-5.6-9-5.6c-2.6,0-5.2,0.1-7.7,0.3c-0.5,0.1-0.4,1.1,0,1.2l1.3,0.2
		c1.1,0.1,1.1,0.9,1.1,4V407.4z"/>
</g>
<g>
	<path class="st0" d="M452.3,394.7c0-1.2,0-1.2-1-1.2h-1.4c-2.8,0-4.1,0.3-5.2,3.5c-0.5,0.3-1,0.1-1.2-0.2c0.5-2,1-4.3,1.3-5.5
		c0.2-0.2,0.7-0.2,0.8,0c0,0.9,0.7,0.9,2.6,0.9h12.9c1.7,0,2.1,0,2.4-0.9c0.3-0.2,0.7-0.1,0.8,0.1c-0.4,1.2-0.6,3.7-0.5,5.5
		c-0.2,0.4-1,0.4-1.2,0c-0.3-3-1.5-3.4-4.3-3.4h-1.6c-0.9,0-1,0-1,1.2v12.8c0,3.2,0.2,3.5,2.2,3.7l1.3,0.1c0.3,0.2,0.3,1-0.1,1.2
		c-1.9-0.1-3.7-0.1-5.1-0.1c-1.5,0-3.2,0-5.1,0.1c-0.4-0.1-0.4-0.9-0.1-1.2l1.3-0.1c2-0.2,2.2-0.5,2.2-3.7V394.7"/>
	<path class="st0" d="M497.9,399.3c0-4.7-0.3-5.8-2-6l-1.5-0.1c-0.3-0.3-0.3-0.9,0.1-1.2c1.7,0.1,2.8,0.1,4.1,0.1
		c1.3,0,2.4,0,3.9-0.1c0.4,0.2,0.4,0.9,0,1.2l-1.4,0.1c-1.2,0.1-1.6,1.4-1.6,6v7.8c0,0.9,0,4.7,0.1,5.4c-0.1,0.3-0.6,0.5-1,0.4
		c-0.5-0.7-1.4-1.6-4.3-4.8l-7.1-7.5c-1.8-1.9-3-3.1-3.6-3.6c-0.2,0-0.2,0.5-0.2,2v6.2c0,4.7,0.3,5.9,2,6l1.5,0.1
		c0.4,0.3,0.3,0.9-0.1,1.2c-1.7-0.1-2.8-0.1-4.1-0.1c-1.4,0-2.2,0-3.9,0.1c-0.4-0.2-0.4-0.9-0.1-1.2l1.4-0.1c1.2-0.1,1.6-1.4,1.6-6
		v-8.3c0-1.5,0-2.2-1-2.9c-0.4-0.3-1.3-0.6-1.7-0.7l-0.7-0.1c-0.3-0.3-0.3-1,0.1-1.2c1.8,0.1,3,0.1,4,0.1c0.7,0,1.3,0,1.9-0.1
		c0.9,1.8,2.7,3.8,4.6,5.7l4.4,4.5c1,1,3.7,4,4.2,4.3c0.3-0.1,0.3-0.7,0.3-1.9V399.3"/>
</g>
<g>
	<path class="st0" d="M520.9,397c0-3.2-0.2-3.4-2-3.7l-0.7-0.1c-0.3-0.2-0.3-1,0.1-1.2c0.7,0,1.4,0.1,2.1,0.1c0.7,0,1.5,0,2.2,0h6.6
		c2.1,0,3.9,0,4.3-0.1c0,0.6,0.3,2.7,0.5,4.8c-0.2,0.4-0.9,0.4-1.2,0.1c-0.3-1.2-0.6-1.8-0.8-2.2c-0.7-1.1-2.8-1.1-4-1.1h-2
		c-1.6,0-1.7,0-1.7,1.5v5.2c0,0.8,0,0.9,0.9,0.9h2.2c2.5,0,2.7-0.4,3.1-1.8l0.2-0.9c0.2-0.3,0.9-0.3,1.2,0.1
		c-0.1,1.4-0.1,2.2-0.1,3.3c0,1.2,0,2,0.1,3.4c-0.2,0.4-0.9,0.4-1.2,0.1l-0.2-0.9c-0.4-1.4-0.6-1.8-3.1-1.8h-2.2
		c-0.9,0-0.9,0.1-0.9,1.1v3.4c0,1.4,0.1,2.8,0.5,3.4c0.4,0.5,1.3,0.7,3.9,0.7c3,0,4.7-0.1,6.1-3.9c0.3-0.3,1.1-0.2,1.2,0.2
		c-0.2,2-0.9,4.3-1.4,5.2c-1.4,0-2.8-0.1-4.1-0.1c-1.3,0-2.6,0-3.8,0h-4.1c-1.5,0-2.9,0-5.2,0.1c-0.4-0.1-0.4-0.9-0.1-1.2l1.3-0.1
		c2-0.2,2.2-0.5,2.2-3.7V397"/>
	<path class="st0" d="M557.5,394.6c0-1.2,0.3-1.3,2.1-1.3c3.3,0,4.9,2,4.9,4.4c0,3.2-1.6,4.4-4.6,4.4c-2.3,0-2.3,0-2.3-1.2V394.6
		 M553.9,407.4c0,3.2-0.2,3.3-2.2,3.7l-0.7,0.1c-0.4,0.2-0.4,1,0.1,1.2c1.6-0.1,3.1-0.1,4.6-0.1c1.4,0,3,0,4.9,0.1
		c0.4-0.1,0.4-0.9,0.1-1.2l-1.1-0.1c-2-0.3-2.2-0.5-2.2-3.7v-3.3c0-0.7,0.1-0.7,1.3-0.7c0.7,0,1.5,0.2,1.9,0.7c1,1.5,2.2,3.5,3.4,5
		c2.1,2.6,3.7,3.5,6.5,3.5c0.9,0,1.5-0.1,2-0.2c0.2-0.1,0.2-0.6,0-0.7c-0.7,0-1.6-0.3-2.5-1c-1.5-1.3-3.6-3.5-5.9-7.4
		c-0.1-0.2-0.2-0.5,0-0.7c1.8-0.7,4.1-2,4.1-5c0-4.9-4.7-5.6-9-5.6c-2.6,0-5.2,0.1-7.7,0.3c-0.5,0.1-0.4,1.1,0,1.2l1.3,0.2
		c1.1,0.1,1.1,0.9,1.1,4V407.4z"/>
	<path class="st0" d="M590.8,402.8c-2.2-1.2-4.1-3-4.1-5.6c0-3.4,2.6-5.8,7.3-5.8c1.6,0,2.7,0.4,4.3,0.7c0.4,0.8,0.7,2.6,0.7,4.6
		c-0.1,0.4-1,0.4-1.2,0.1c-0.4-1.6-1.6-4-4.3-4s-3.8,1.6-3.8,3.2c0,1.7,1.3,2.7,3.1,3.7l2.9,1.5c1.7,0.8,3.8,2.8,3.8,5.9
		c0,3.6-3,5.9-7.6,5.9c-2.8,0-4.7-1-5.4-1.4c-0.4-0.7-1-2.3-1-4.8c0.2-0.5,0.9-0.5,1.2-0.1c0.4,1.7,2.4,5,5.5,5
		c2.4,0,3.9-1.2,3.9-3.4c0-1.5-0.6-3-3.3-4.4L590.8,402.8"/>
</g>
<g>
	<path class="st0" d="M603.4,286.6c-0.3-0.4-0.5-1.6-0.5-2.6c0.1-0.2,0.4-0.2,0.5-0.1c0.3,0.9,1.2,2.7,2.9,2.7
		c1.3,0,2.1-0.8,2.1-1.8c0-1-0.5-1.8-1.8-2.5l-0.7-0.4c-1.3-0.7-2.4-1.8-2.4-3.3c0-1.7,1.3-3.2,3.8-3.2c0.9,0,1.6,0.2,2.4,0.4
		c0.2,0.4,0.4,1.5,0.4,2.3c-0.1,0.2-0.4,0.2-0.6,0.1c-0.3-0.9-0.9-2.1-2.3-2.1c-1.4,0-2,0.9-2,1.8c0,0.7,0.5,1.5,1.6,2.1l1.1,0.6
		c1.1,0.6,2.4,1.7,2.4,3.4c0,2-1.5,3.4-4,3.4C604.7,287.4,603.8,286.8,603.4,286.6"/>
	<path class="st0" d="M625.8,286.6c0.2,0.1,0.2,0.4,0,0.5c-0.7,0-1.4-0.1-2.1-0.1c-0.8,0-1.6,0-2.3,0.1c-0.1-0.1-0.2-0.4,0-0.5
		l0.5-0.1c0.7-0.1,0.7-0.2,0.7-1.4v-7.1h0c-0.5,1-0.7,1.5-1,2.2l-1.5,3c-0.6,1.2-1.4,3.1-1.8,3.9c-0.1,0.1-0.3,0.1-0.5,0
		c-0.3-0.9-1-2.6-1.4-3.5l-1.5-3.3c-0.3-0.7-0.8-1.8-1-2.3h0c0,0.8-0.1,2.2-0.1,2.9c0,1.1-0.1,2.6-0.1,4c0,1.1,0,1.4,0.8,1.5
		l0.6,0.1c0.1,0.1,0.1,0.4,0,0.5c-0.6,0-1.2-0.1-1.8-0.1c-0.6,0-1.2,0-1.9,0.1c-0.2-0.1-0.2-0.4-0.1-0.5l0.3,0
		c0.8-0.1,1-0.4,1.1-1.4c0.1-1.1,0.2-2.2,0.3-4c0.1-1.2,0.2-2.6,0.2-3.7c0-0.8-0.3-1.2-0.9-1.3l-0.6-0.1c-0.1-0.1-0.1-0.5,0.1-0.5
		c0.5,0,1,0.1,1.6,0.1c0.6,0,1.2,0,1.9-0.1c0.1,1,0.5,1.9,0.9,2.9l1.9,4c0.1,0.3,0.6,1.2,0.8,1.6c0.3-0.5,0.5-1,0.9-1.8l1.6-3.3
		c0.6-1.1,1.1-2.2,1.4-3.3c0.5,0,1,0.1,1.4,0.1c0.7,0,1.3,0,1.8-0.1c0.2,0.1,0.2,0.4,0.1,0.5l-0.6,0.1c-0.8,0.1-0.9,0.4-0.9,1.3
		c0,2.6,0,5.1,0.2,7.7c0.1,1.2,0.2,1.3,0.8,1.3L625.8,286.6"/>
</g>
</svg>
